# xmcd
#
# Track frame offsets: 
#        150
#        12218
#        25323
#        36518
#        47633
#        60820
#        74272
#        85732
#        98522
#        109452
#        120405
#
# Disc length: 1773 seconds
#
# Revision: 0
# Processed by: cddbd v1.5.2PL0 Copyright (c) Steve Scherf et al.
# Submitted via: ExactAudioCopy v0.95b2
#
DISCID=8306eb0b
DTITLE=Tyrone Davis - Can I Change My Mind
DYEAR=1969
DGENRE=R&B
TTITLE0=She's Looking Good
TTITLE1=Knock On Wood
TTITLE2=Have You Ever Wondered Why?
TTITLE3=Slip Away
TTITLE4=Good Times
TTITLE5=Can I Change My Mind
TTITLE6=Open The Door To Your Heart
TTITLE7=Call On Me
TTITLE8=Just The One (I've Been Looking For)
TTITLE9=You Can't Keep A Good Man Down
TTITLE10=A Woman Needs To Be Loved
EXTD=
EXTT0=
EXTT1=
EXTT2=
EXTT3=
EXTT4=
EXTT5=
EXTT6=
EXTT7=
EXTT8=
EXTT9=
EXTT10=
PLAYORDER=
